<svg width="65" height="57" viewBox="0 0 65 57" fill="none" xmlns="http://www.w3.org/2000/svg">
<path d="M49.0474 45.5312L40.9826 53.596C39.925 54.6538 38.6693 55.4929 37.2874 56.0653C35.9055 56.6378 34.4243 56.9324 32.9285 56.9324C31.4328 56.9324 29.9516 56.6378 28.5697 56.0653C27.1878 55.4929 25.9321 54.6538 24.8745 53.596L16.8097 45.5324C14.7037 43.3882 13.5298 40.4991 13.5433 37.4936C13.5569 34.4882 14.7567 31.6098 16.8819 29.4846C19.0071 27.3594 21.8855 26.1595 24.891 26.146C27.8964 26.1325 30.7855 27.3064 32.9298 29.4124C35.0674 27.2749 37.9666 26.0741 40.9896 26.0742C44.0126 26.0743 46.9117 27.2753 49.0492 29.413C51.1867 31.5506 52.3875 34.4498 52.3873 37.4728C52.3872 40.4958 51.1863 43.3949 49.0486 45.5324L49.0474 45.5312Z" fill="#F4F4F4"/>
<path d="M13.651 26.9091C16.3943 25.3252 16.877 21.0256 14.7292 17.3055C12.5814 13.5854 8.61641 11.8536 5.87314 13.4374C3.12987 15.0212 2.64714 19.3209 4.79494 23.041C6.94274 26.7611 10.9077 28.4929 13.651 26.9091Z" fill="#F4F4F4"/>
<path d="M61.0637 23.0412C63.2115 19.3211 62.7288 15.0214 59.9855 13.4376C57.2422 11.8538 53.2772 13.5856 51.1294 17.3057C48.9816 21.0258 49.4643 25.3255 52.2076 26.9093C54.9509 28.4931 58.9159 26.7613 61.0637 23.0412Z" fill="#F4F4F4"/>
<path d="M25.786 18.7834C29.3728 18.1568 31.5915 13.7054 30.7417 8.84088C29.8918 3.97641 26.2952 0.540978 22.7084 1.16762C19.1216 1.79426 16.9029 6.24567 17.7528 11.1101C18.6027 15.9746 22.1993 19.41 25.786 18.7834Z" fill="#F4F4F4"/>
<path d="M48.0806 11.0771C48.9304 6.21262 46.7117 1.7612 43.1249 1.13457C39.5381 0.507926 35.9415 3.94336 35.0917 8.80783C34.2418 13.6723 36.4605 18.1237 40.0473 18.7504C43.6341 19.377 47.2307 15.9416 48.0806 11.0771Z" fill="#F4F4F4"/>
</svg>
