<svg width="65" height="58" viewBox="0 0 65 58" fill="none" xmlns="http://www.w3.org/2000/svg">
<path d="M48.1414 45.9741L40.0766 54.0389C39.0189 55.0967 37.7633 55.9357 36.3814 56.5082C34.9995 57.0806 33.5183 57.3753 32.0225 57.3753C30.5267 57.3753 29.0456 57.0806 27.6637 56.5082C26.2818 55.9357 25.0261 55.0967 23.9685 54.0389L15.9037 45.9753C13.7977 43.8311 12.6238 40.9419 12.6373 37.9365C12.6508 34.9311 13.8507 32.0526 15.9759 29.9274C18.1011 27.8023 20.9795 26.6024 23.985 26.5888C26.9904 26.5753 29.8795 27.7493 32.0237 29.8552C34.1614 27.7177 37.0606 26.517 40.0836 26.5171C43.1066 26.5172 46.0057 27.7182 48.1432 29.8558C50.2807 31.9935 51.4815 34.8927 51.4813 37.9157C51.4812 40.9387 50.2802 43.8378 48.1426 45.9753L48.1414 45.9741Z" fill="#3E3C3D"/>
<path d="M12.745 27.3519C15.4883 25.7681 15.971 21.4684 13.8232 17.7483C11.6754 14.0282 7.7104 12.2964 4.96713 13.8803C2.22386 15.4641 1.74114 19.7638 3.88894 23.4839C6.03674 27.204 10.0017 28.9358 12.745 27.3519Z" fill="#3E3C3D"/>
<path d="M60.1577 23.4841C62.3055 19.764 61.8227 15.4643 59.0795 13.8805C56.3362 12.2967 52.3712 14.0284 50.2234 17.7485C48.0756 21.4686 48.5583 25.7683 51.3016 27.3522C54.0449 28.936 58.0099 27.2042 60.1577 23.4841Z" fill="#3E3C3D"/>
<path d="M24.88 19.2263C28.4668 18.5996 30.6855 14.1482 29.8357 9.28375C28.9858 4.41929 25.3892 0.983849 21.8024 1.61049C18.2156 2.23713 15.9969 6.68854 16.8468 11.553C17.6967 16.4175 21.2933 19.8529 24.88 19.2263Z" fill="#3E3C3D"/>
<path d="M47.1746 11.52C48.0244 6.65549 45.8057 2.20408 42.2189 1.57744C38.6321 0.950797 35.0355 4.38623 34.1857 9.2507C33.3358 14.1152 35.5545 18.5666 39.1413 19.1932C42.7281 19.8199 46.3247 16.3844 47.1746 11.52Z" fill="#3E3C3D"/>
</svg>
