<svg width="65" height="58" viewBox="0 0 65 58" fill="none" xmlns="http://www.w3.org/2000/svg">
<path d="M48.4195 46.0883L40.3547 54.1532C39.297 55.2109 38.0414 56.05 36.6595 56.6224C35.2776 57.1949 33.7964 57.4895 32.3006 57.4895C30.8048 57.4895 29.3237 57.1949 27.9418 56.6224C26.5598 56.05 25.3042 55.2109 24.2466 54.1532L16.1818 46.0895C14.0758 43.9453 12.9019 41.0562 12.9154 38.0508C12.9289 35.0454 14.1288 32.1669 16.254 30.0417C18.3791 27.9165 21.2576 26.7166 24.263 26.7031C27.2685 26.6896 30.1576 27.8635 32.3018 29.9695C34.4395 27.832 37.3387 26.6312 40.3617 26.6313C43.3847 26.6315 46.2838 27.8324 48.4213 29.9701C50.5588 32.1077 51.7595 35.007 51.7594 38.0299C51.7593 41.0529 50.5583 43.9521 48.4207 46.0895L48.4195 46.0883Z" fill="#F3859A"/>
<path d="M13.0231 27.4662C15.7664 25.8824 16.2491 21.5827 14.1013 17.8626C11.9535 14.1425 7.98848 12.4107 5.24521 13.9945C2.50194 15.5784 2.01921 19.878 4.16701 23.5981C6.31481 27.3182 10.2798 29.05 13.0231 27.4662Z" fill="#F3859A"/>
<path d="M60.4358 23.5983C62.5836 19.8783 62.1008 15.5786 59.3576 13.9947C56.6143 12.4109 52.6493 14.1427 50.5015 17.8628C48.3537 21.5829 48.8364 25.8826 51.5797 27.4664C54.323 29.0502 58.288 27.3184 60.4358 23.5983Z" fill="#F3859A"/>
<path d="M25.1581 19.3405C28.7449 18.7139 30.9636 14.2625 30.1137 9.39801C29.2639 4.53354 25.6673 1.09811 22.0805 1.72475C18.4937 2.35139 16.275 6.8028 17.1249 11.6673C17.9747 16.5317 21.5713 19.9672 25.1581 19.3405Z" fill="#F3859A"/>
<path d="M47.4526 11.6342C48.3025 6.76975 46.0838 2.31833 42.497 1.69169C38.9102 1.06505 35.3136 4.50049 34.4637 9.36496C33.6139 14.2294 35.8326 18.6808 39.4194 19.3075C43.0062 19.9341 46.6028 16.4987 47.4526 11.6342Z" fill="#F3859A"/>
</svg>
