<svg width="65" height="57" viewBox="0 0 65 57" fill="none" xmlns="http://www.w3.org/2000/svg">
<path d="M48.1414 45.5312L40.0766 53.596C39.0189 54.6538 37.7633 55.4929 36.3814 56.0653C34.9995 56.6378 33.5183 56.9324 32.0225 56.9324C30.5267 56.9324 29.0456 56.6378 27.6637 56.0653C26.2818 55.4929 25.0261 54.6538 23.9685 53.596L15.9037 45.5324C13.7977 43.3882 12.6238 40.4991 12.6373 37.4936C12.6508 34.4882 13.8507 31.6098 15.9759 29.4846C18.1011 27.3594 20.9795 26.1595 23.985 26.146C26.9904 26.1325 29.8795 27.3064 32.0237 29.4124C34.1614 27.2749 37.0606 26.0741 40.0836 26.0742C43.1066 26.0743 46.0057 27.2753 48.1432 29.413C50.2807 31.5506 51.4815 34.4498 51.4813 37.4728C51.4812 40.4958 50.2802 43.3949 48.1426 45.5324L48.1414 45.5312Z" fill="#ED5270"/>
<path d="M12.745 26.9091C15.4883 25.3252 15.971 21.0256 13.8232 17.3055C11.6754 13.5854 7.7104 11.8536 4.96713 13.4374C2.22386 15.0212 1.74114 19.3209 3.88894 23.041C6.03674 26.7611 10.0017 28.4929 12.745 26.9091Z" fill="#ED5270"/>
<path d="M60.1577 23.0412C62.3055 19.3211 61.8227 15.0214 59.0795 13.4376C56.3362 11.8538 52.3712 13.5856 50.2234 17.3057C48.0756 21.0258 48.5583 25.3255 51.3016 26.9093C54.0449 28.4931 58.0099 26.7613 60.1577 23.0412Z" fill="#ED5270"/>
<path d="M24.88 18.7834C28.4668 18.1568 30.6855 13.7054 29.8357 8.84088C28.9858 3.97641 25.3892 0.540978 21.8024 1.16762C18.2156 1.79426 15.9969 6.24567 16.8468 11.1101C17.6967 15.9746 21.2933 19.41 24.88 18.7834Z" fill="#ED5270"/>
<path d="M47.1746 11.0771C48.0244 6.21262 45.8057 1.7612 42.2189 1.13457C38.6321 0.507926 35.0355 3.94336 34.1857 8.80783C33.3358 13.6723 35.5545 18.1237 39.1413 18.7504C42.7281 19.377 46.3247 15.9416 47.1746 11.0771Z" fill="#ED5270"/>
</svg>
