<svg width="65" height="57" viewBox="0 0 65 57" fill="none" xmlns="http://www.w3.org/2000/svg">
<path d="M48.4195 45.5312L40.3547 53.596C39.297 54.6538 38.0414 55.4929 36.6595 56.0653C35.2776 56.6378 33.7964 56.9324 32.3006 56.9324C30.8048 56.9324 29.3237 56.6378 27.9418 56.0653C26.5598 55.4929 25.3042 54.6538 24.2466 53.596L16.1818 45.5324C14.0758 43.3882 12.9019 40.4991 12.9154 37.4936C12.9289 34.4882 14.1288 31.6098 16.254 29.4846C18.3791 27.3594 21.2576 26.1595 24.263 26.146C27.2685 26.1325 30.1576 27.3064 32.3018 29.4124C34.4395 27.2749 37.3387 26.0741 40.3617 26.0742C43.3847 26.0743 46.2838 27.2753 48.4213 29.413C50.5588 31.5506 51.7595 34.4498 51.7594 37.4728C51.7593 40.4958 50.5583 43.3949 48.4207 45.5324L48.4195 45.5312Z" fill="#636061"/>
<path d="M13.0231 26.9091C15.7664 25.3252 16.2491 21.0256 14.1013 17.3055C11.9535 13.5854 7.98848 11.8536 5.24521 13.4374C2.50194 15.0212 2.01921 19.3209 4.16701 23.041C6.31481 26.7611 10.2798 28.4929 13.0231 26.9091Z" fill="#636061"/>
<path d="M60.4358 23.0412C62.5836 19.3211 62.1008 15.0214 59.3576 13.4376C56.6143 11.8538 52.6493 13.5856 50.5015 17.3057C48.3537 21.0258 48.8364 25.3255 51.5797 26.9093C54.323 28.4931 58.288 26.7613 60.4358 23.0412Z" fill="#636061"/>
<path d="M25.1581 18.7834C28.7449 18.1568 30.9636 13.7054 30.1137 8.84088C29.2639 3.97641 25.6673 0.540978 22.0805 1.16762C18.4937 1.79426 16.275 6.24567 17.1249 11.1101C17.9747 15.9746 21.5713 19.41 25.1581 18.7834Z" fill="#636061"/>
<path d="M47.4526 11.0771C48.3025 6.21262 46.0838 1.7612 42.497 1.13457C38.9102 0.507926 35.3136 3.94336 34.4637 8.80783C33.6139 13.6723 35.8326 18.1237 39.4194 18.7504C43.0062 19.377 46.6028 15.9416 47.4526 11.0771Z" fill="#636061"/>
</svg>
