<svg width="65" height="58" viewBox="0 0 65 58" fill="none" xmlns="http://www.w3.org/2000/svg">
<path d="M49.0474 46.0883L40.9826 54.1532C39.925 55.2109 38.6693 56.05 37.2874 56.6224C35.9055 57.1949 34.4243 57.4895 32.9285 57.4895C31.4328 57.4895 29.9516 57.1949 28.5697 56.6224C27.1878 56.05 25.9321 55.2109 24.8745 54.1532L16.8097 46.0895C14.7037 43.9453 13.5298 41.0562 13.5433 38.0508C13.5569 35.0454 14.7567 32.1669 16.8819 30.0417C19.0071 27.9165 21.8855 26.7166 24.891 26.7031C27.8964 26.6896 30.7855 27.8635 32.9298 29.9695C35.0674 27.832 37.9666 26.6312 40.9896 26.6313C44.0126 26.6315 46.9117 27.8324 49.0492 29.9701C51.1867 32.1077 52.3875 35.007 52.3873 38.0299C52.3872 41.0529 51.1863 43.9521 49.0486 46.0895L49.0474 46.0883Z" fill="#F53258"/>
<path d="M13.651 27.4662C16.3943 25.8824 16.877 21.5827 14.7292 17.8626C12.5814 14.1425 8.61641 12.4107 5.87314 13.9945C3.12987 15.5784 2.64714 19.878 4.79494 23.5981C6.94274 27.3182 10.9077 29.05 13.651 27.4662Z" fill="#F53258"/>
<path d="M61.0637 23.5983C63.2115 19.8783 62.7288 15.5786 59.9855 13.9947C57.2422 12.4109 53.2772 14.1427 51.1294 17.8628C48.9816 21.5829 49.4643 25.8826 52.2076 27.4664C54.9509 29.0502 58.9159 27.3184 61.0637 23.5983Z" fill="#F53258"/>
<path d="M25.7862 19.3405C29.373 18.7139 31.5917 14.2625 30.7418 9.39801C29.8919 4.53354 26.2953 1.09811 22.7086 1.72475C19.1218 2.35139 16.9031 6.8028 17.7529 11.6673C18.6028 16.5317 22.1994 19.9672 25.7862 19.3405Z" fill="#F53258"/>
<path d="M48.0807 11.6342C48.9305 6.76975 46.7118 2.31833 43.125 1.69169C39.5383 1.06505 35.9416 4.50049 35.0918 9.36496C34.2419 14.2294 36.4606 18.6808 40.0474 19.3075C43.6342 19.9341 47.2308 16.4987 48.0807 11.6342Z" fill="#F53258"/>
</svg>
