<svg width="115" height="27" viewBox="0 0 115 27" fill="none" xmlns="http://www.w3.org/2000/svg">
<path d="M4.825 2.45V20H0.55V2.45H4.825ZM79.9465 2.45V20H75.6715V9.475L71.7465 20H68.2965L64.3465 9.45V20H60.0715V2.45H65.1215L70.0465 14.6L74.9215 2.45H79.9465ZM82.1707 13C82.1707 11.5667 82.4374 10.3083 82.9707 9.225C83.5207 8.14167 84.2624 7.30833 85.1957 6.725C86.129 6.14167 87.1707 5.85 88.3207 5.85C89.304 5.85 90.1624 6.05 90.8957 6.45C91.6457 6.85 92.2207 7.375 92.6207 8.025V6.05H96.8957V20H92.6207V18.025C92.204 18.675 91.6207 19.2 90.8707 19.6C90.1374 20 89.279 20.2 88.2957 20.2C87.1624 20.2 86.129 19.9083 85.1957 19.325C84.2624 18.725 83.5207 17.8833 82.9707 16.8C82.4374 15.7 82.1707 14.4333 82.1707 13ZM92.6207 13.025C92.6207 11.9583 92.3207 11.1167 91.7207 10.5C91.1374 9.88333 90.4207 9.575 89.5707 9.575C88.7207 9.575 87.9957 9.88333 87.3957 10.5C86.8124 11.1 86.5207 11.9333 86.5207 13C86.5207 14.0667 86.8124 14.9167 87.3957 15.55C87.9957 16.1667 88.7207 16.475 89.5707 16.475C90.4207 16.475 91.1374 16.1667 91.7207 15.55C92.3207 14.9333 92.6207 14.0917 92.6207 13.025ZM104.263 8.025C104.68 7.375 105.255 6.85 105.988 6.45C106.722 6.05 107.58 5.85 108.563 5.85C109.713 5.85 110.755 6.14167 111.688 6.725C112.622 7.30833 113.355 8.14167 113.888 9.225C114.438 10.3083 114.713 11.5667 114.713 13C114.713 14.4333 114.438 15.7 113.888 16.8C113.355 17.8833 112.622 18.725 111.688 19.325C110.755 19.9083 109.713 20.2 108.563 20.2C107.597 20.2 106.738 20 105.988 19.6C105.255 19.2 104.68 18.6833 104.263 18.05V26.65H99.9885V6.05H104.263V8.025ZM110.363 13C110.363 11.9333 110.063 11.1 109.463 10.5C108.88 9.88333 108.155 9.575 107.288 9.575C106.438 9.575 105.713 9.88333 105.113 10.5C104.53 11.1167 104.238 11.9583 104.238 13.025C104.238 14.0917 104.53 14.9333 105.113 15.55C105.713 16.1667 106.438 16.475 107.288 16.475C108.138 16.475 108.863 16.1667 109.463 15.55C110.063 14.9167 110.363 14.0667 110.363 13Z" fill="#ED5270"/>
<path d="M32.073 2.45L27.498 20H22.323L19.523 8.45L16.623 20H11.448L6.99805 2.45H11.573L14.098 15.225L17.223 2.45H21.923L24.923 15.225L27.473 2.45H32.073ZM47.992 6.05V20H43.717V18.1C43.2837 18.7167 42.692 19.2167 41.942 19.6C41.2087 19.9667 40.392 20.15 39.492 20.15C38.4253 20.15 37.4837 19.9167 36.667 19.45C35.8503 18.9667 35.217 18.275 34.767 17.375C34.317 16.475 34.092 15.4167 34.092 14.2V6.05H38.342V13.625C38.342 14.5583 38.5837 15.2833 39.067 15.8C39.5503 16.3167 40.2003 16.575 41.017 16.575C41.8503 16.575 42.5087 16.3167 42.992 15.8C43.4753 15.2833 43.717 14.5583 43.717 13.625V6.05H47.992ZM58.0627 9.6H55.7627V20H51.4877V9.6H49.9377V6.05H51.4877V5.65C51.4877 3.93333 51.9794 2.63333 52.9627 1.75C53.946 0.849999 55.3877 0.399999 57.2877 0.399999C57.6044 0.399999 57.8377 0.408332 57.9877 0.424999V4.05C57.171 4 56.596 4.11667 56.2627 4.4C55.9294 4.68333 55.7627 5.19167 55.7627 5.925V6.05H58.0627V9.6Z" fill="black"/>
</svg>
