<svg width="120" height="21" viewBox="0 0 120 21" fill="none" xmlns="http://www.w3.org/2000/svg">
<path d="M0.55 20H4.825V2.45H0.55V20ZM59.3465 11.2C59.3465 16.45 62.9965 20.125 68.1715 20.125C72.3465 20.125 75.4965 17.8 76.4965 14H71.7965C71.0715 15.5 69.7465 16.25 68.1215 16.25C65.4965 16.25 63.6965 14.3 63.6965 11.2C63.6965 8.1 65.4965 6.15 68.1215 6.15C69.7465 6.15 71.0715 6.9 71.7965 8.4H76.4965C75.4965 4.6 72.3465 2.25 68.1715 2.25C62.9965 2.25 59.3465 5.95 59.3465 11.2ZM78.2645 13C78.2645 17.4 80.9895 20.2 84.3895 20.2C86.4645 20.2 87.9395 19.25 88.7145 18.025V20H92.9895V6.05H88.7145V8.025C87.9645 6.8 86.4895 5.85 84.4145 5.85C80.9895 5.85 78.2645 8.6 78.2645 13ZM88.7145 13.025C88.7145 15.25 87.2895 16.475 85.6645 16.475C84.0645 16.475 82.6145 15.225 82.6145 13C82.6145 10.775 84.0645 9.575 85.6645 9.575C87.2895 9.575 88.7145 10.8 88.7145 13.025ZM100.357 13.525C100.357 11.125 101.532 10.425 103.557 10.425H104.732V5.9C102.857 5.9 101.332 6.9 100.357 8.375V6.05H96.0822V20H100.357V13.525ZM112.926 9.275C114.351 9.275 115.551 10.15 115.551 11.675H110.201C110.451 10.125 111.526 9.275 112.926 9.275ZM119.601 15.375H115.051C114.701 16.125 114.026 16.725 112.826 16.725C111.451 16.725 110.326 15.875 110.176 14.05H119.851C119.901 13.625 119.926 13.2 119.926 12.8C119.926 8.55 117.051 5.85 112.976 5.85C108.826 5.85 105.926 8.6 105.926 13.025C105.926 17.45 108.876 20.2 112.976 20.2C116.451 20.2 118.926 18.1 119.601 15.375Z" fill="#ED5270"/>
<path d="M11.448 20H16.623L19.523 8.45L22.323 20H27.498L32.073 2.45H27.473L24.923 15.225L21.923 2.45H17.223L14.098 15.225L11.573 2.45H6.99805L11.448 20ZM47.992 6.05H43.717V13.625C43.717 15.525 42.667 16.575 41.017 16.575C39.417 16.575 38.342 15.525 38.342 13.625V6.05H34.092V14.2C34.092 17.925 36.267 20.15 39.492 20.15C41.367 20.15 42.867 19.3 43.717 18.1V20H47.992V6.05ZM51.4877 20H55.7627V9.6H58.0627V6.05H55.7627V5.925C55.7627 4.45 56.3377 3.95 57.9877 4.05V0.424999C53.7377 0.199999 51.4877 2 51.4877 5.65V6.05H49.9377V9.6H51.4877V20Z" fill="black"/>
</svg>
