<svg width="128" height="21" viewBox="0 0 128 21" fill="none" xmlns="http://www.w3.org/2000/svg">
<path d="M4.825 2.45V20H0.55V2.45H4.825ZM79.9465 2.45V20H75.6715V9.475L71.7465 20H68.2965L64.3465 9.45V20H60.0715V2.45H65.1215L70.0465 14.6L74.9215 2.45H79.9465ZM89.3707 20.2C88.004 20.2 86.7707 19.9083 85.6707 19.325C84.5874 18.7417 83.729 17.9083 83.0957 16.825C82.479 15.7417 82.1707 14.475 82.1707 13.025C82.1707 11.5917 82.4874 10.3333 83.1207 9.25C83.754 8.15 84.6207 7.30833 85.7207 6.725C86.8207 6.14167 88.054 5.85 89.4207 5.85C90.7874 5.85 92.0207 6.14167 93.1207 6.725C94.2207 7.30833 95.0874 8.15 95.7207 9.25C96.354 10.3333 96.6707 11.5917 96.6707 13.025C96.6707 14.4583 96.3457 15.725 95.6957 16.825C95.0624 17.9083 94.1874 18.7417 93.0707 19.325C91.9707 19.9083 90.7374 20.2 89.3707 20.2ZM89.3707 16.5C90.1874 16.5 90.879 16.2 91.4457 15.6C92.029 15 92.3207 14.1417 92.3207 13.025C92.3207 11.9083 92.0374 11.05 91.4707 10.45C90.9207 9.85 90.2374 9.55 89.4207 9.55C88.5874 9.55 87.8957 9.85 87.3457 10.45C86.7957 11.0333 86.5207 11.8917 86.5207 13.025C86.5207 14.1417 86.7874 15 87.3207 15.6C87.8707 16.2 88.554 16.5 89.3707 16.5ZM105.214 16L108.239 6.05H112.789L107.839 20H102.564L97.6137 6.05H102.189L105.214 16ZM127.738 12.8C127.738 13.2 127.713 13.6167 127.663 14.05H117.988C118.055 14.9167 118.33 15.5833 118.813 16.05C119.313 16.5 119.921 16.725 120.638 16.725C121.705 16.725 122.446 16.275 122.863 15.375H127.413C127.18 16.2917 126.755 17.1167 126.138 17.85C125.538 18.5833 124.78 19.1583 123.863 19.575C122.946 19.9917 121.921 20.2 120.788 20.2C119.421 20.2 118.205 19.9083 117.138 19.325C116.071 18.7417 115.238 17.9083 114.638 16.825C114.038 15.7417 113.738 14.475 113.738 13.025C113.738 11.575 114.03 10.3083 114.613 9.225C115.213 8.14167 116.046 7.30833 117.113 6.725C118.18 6.14167 119.405 5.85 120.788 5.85C122.138 5.85 123.338 6.13333 124.388 6.7C125.438 7.26667 126.255 8.075 126.838 9.125C127.438 10.175 127.738 11.4 127.738 12.8ZM123.363 11.675C123.363 10.9417 123.113 10.3583 122.613 9.925C122.113 9.49167 121.488 9.275 120.738 9.275C120.021 9.275 119.413 9.48333 118.913 9.9C118.43 10.3167 118.13 10.9083 118.013 11.675H123.363Z" fill="#ED5270"/>
<path d="M32.073 2.45L27.498 20H22.323L19.523 8.45L16.623 20H11.448L6.99805 2.45H11.573L14.098 15.225L17.223 2.45H21.923L24.923 15.225L27.473 2.45H32.073ZM47.992 6.05V20H43.717V18.1C43.2837 18.7167 42.692 19.2167 41.942 19.6C41.2087 19.9667 40.392 20.15 39.492 20.15C38.4253 20.15 37.4837 19.9167 36.667 19.45C35.8503 18.9667 35.217 18.275 34.767 17.375C34.317 16.475 34.092 15.4167 34.092 14.2V6.05H38.342V13.625C38.342 14.5583 38.5837 15.2833 39.067 15.8C39.5503 16.3167 40.2003 16.575 41.017 16.575C41.8503 16.575 42.5087 16.3167 42.992 15.8C43.4753 15.2833 43.717 14.5583 43.717 13.625V6.05H47.992ZM58.0627 9.6H55.7627V20H51.4877V9.6H49.9377V6.05H51.4877V5.65C51.4877 3.93333 51.9794 2.63333 52.9627 1.75C53.946 0.849999 55.3877 0.399999 57.2877 0.399999C57.6044 0.399999 57.8377 0.408332 57.9877 0.424999V4.05C57.171 4 56.596 4.11667 56.2627 4.4C55.9294 4.68333 55.7627 5.19167 55.7627 5.925V6.05H58.0627V9.6Z" fill="black"/>
</svg>
