<svg width="75" height="21" viewBox="0 0 75 21" fill="none" xmlns="http://www.w3.org/2000/svg">
<path d="M0.55 20H4.825V2.45H0.55V20ZM59.9965 12.925C59.9965 17.775 63.1715 20.175 67.2465 20.175C71.2965 20.175 74.6965 17.775 74.6965 12.925V2.45H70.4215V12.95C70.4215 15.025 69.3465 16.225 67.3215 16.225C65.2965 16.225 64.2715 15.025 64.2715 12.95V2.45H59.9965V12.925Z" fill="#ED5270"/>
<path d="M11.448 20H16.623L19.523 8.45L22.323 20H27.498L32.073 2.45H27.473L24.923 15.225L21.923 2.45H17.223L14.098 15.225L11.573 2.45H6.99805L11.448 20ZM47.992 6.05H43.717V13.625C43.717 15.525 42.667 16.575 41.017 16.575C39.417 16.575 38.342 15.525 38.342 13.625V6.05H34.092V14.2C34.092 17.925 36.267 20.15 39.492 20.15C41.367 20.15 42.867 19.3 43.717 18.1V20H47.992V6.05ZM51.4877 20H55.7627V9.6H58.0627V6.05H55.7627V5.925C55.7627 4.45 56.3377 3.95 57.9877 4.05V0.424999C53.7377 0.199999 51.4877 2 51.4877 5.65V6.05H49.9377V9.6H51.4877V20Z" fill="black"/>
</svg>
