<svg width="57" height="19" viewBox="0 0 57 19" fill="none" xmlns="http://www.w3.org/2000/svg">
<path d="M5.075 18H10.25L13.15 6.45L15.95 18H21.125L25.7 0.449999H21.1L18.55 13.225L15.55 0.449999H10.85L7.725 13.225L5.2 0.449999H0.625L5.075 18ZM27.7689 10.925C27.7689 15.775 30.9439 18.175 35.0189 18.175C39.0689 18.175 42.4689 15.775 42.4689 10.925V0.449999H38.1939V10.95C38.1939 13.025 37.1189 14.225 35.0939 14.225C33.0689 14.225 32.0439 13.025 32.0439 10.95V0.449999H27.7689V10.925ZM45.4709 18H49.7459V10.9H55.0959V7.575H49.7459V3.875H56.8959V0.449999H45.4709V18Z" fill="#ED5270"/>
</svg>
